<?xml version="1.0" encoding="UTF-8" standalone="no"?>
<svg
   version="1.1"
   width="20.9444in"
   height="11.0694in"
   viewBox="0 0 1508 797"
   id="svg1"
   sodipodi:docname="Logo_Alamin_white.svg"
   xml:space="preserve"
   inkscape:version="1.4.2 (f4327f4, 2025-05-13)"
   xmlns:inkscape="http://www.inkscape.org/namespaces/inkscape"
   xmlns:sodipodi="http://sodipodi.sourceforge.net/DTD/sodipodi-0.dtd"
   xmlns="http://www.w3.org/2000/svg"
   xmlns:svg="http://www.w3.org/2000/svg"><defs
     id="defs1" /><sodipodi:namedview
     id="namedview1"
     pagecolor="#ffffff"
     bordercolor="#000000"
     borderopacity="0.25"
     inkscape:showpageshadow="2"
     inkscape:pageopacity="0.0"
     inkscape:pagecheckerboard="0"
     inkscape:deskcolor="#d1d1d1"
     inkscape:document-units="in"
     inkscape:zoom="0.25718119"
     inkscape:cx="915.69684"
     inkscape:cy="530.75422"
     inkscape:window-width="1920"
     inkscape:window-height="991"
     inkscape:window-x="-9"
     inkscape:window-y="-9"
     inkscape:window-maximized="1"
     inkscape:current-layer="svg1" /><path
     id="Selection"
     fill="none"
     stroke="#000000"
     stroke-width="1"
     d="m 753,1 c 6.99,-1.99 11.97,-0.04 19,0 l 25,1.83 19,1.34 78,9.75 c 84.32,13.86 161.95,33.03 240,68.77 41.47,18.99 81.59,42.3 115.72,72.8 45.64,40.8 81.37,94.79 69.86,158.51 -2.12,11.74 -5.92,23.16 -10.89,34 -26.26,57.35 -89.67,98.61 -144.69,125.26 -87.76,42.5 -197.65,69.36 -294,84.32 l -73,10.27 -43,5.15 -1,-3 36,-8.63 c 52.97,-13.24 104.64,-29.82 155,-50.95 50.79,-21.31 106.05,-51.57 147,-88.59 50.34,-45.51 88.04,-105.81 70.53,-175.83 -4.41,-17.61 -10.88,-31.49 -20.13,-47 -12.1,-20.29 -28.18,-37.87 -45.4,-53.91 C 1038.17,91.22 946.46,52.49 871,30.42 844.29,22.61 817.21,15.82 790,10 L 766,5.2 C 761.33,4.27 756.78,4.03 753,1 Z m 14,609 c -2.76,3.85 -9.74,2.14 -14,1.58 l -20,-1.75 -15,-1.75 C 670.35,604.27 611.18,594.04 564,584.6 501.78,572.15 430.62,551.69 373,525.31 333.64,507.28 296.43,486.13 264,457.16 234.15,430.51 209.47,396.89 201.45,357 c -2.78,-13.83 -2.61,-22.14 -2.45,-36 0.22,-18.3 8.51,-43.73 16.76,-60 10.45,-20.61 25.94,-40.7 42.24,-57 25.06,-25.06 54.28,-45.26 85,-62.72 C 397.7,110.19 460.12,89.07 521,73.87 572.08,61.12 636.52,50.75 689,46.91 l 26,-2 10,-0.91 34,-1 c -2.36,3.41 -5.15,3.2 -9,4 l -20,4.35 -81,21.07 c -43.94,12.85 -92.81,32.49 -133,54.27 -28.93,15.68 -58.53,34.38 -83,56.48 -20.61,18.61 -39.7,39.59 -53.57,63.83 -8.26,14.43 -14.47,29.94 -18.7,46 -2.87,10.9 -4,22.78 -4.64,34 -0.41,7.25 2.3,26.51 4.03,34 10.12,43.91 34.22,75.09 65.88,105.99 24.53,23.94 57.88,45.03 88,61.32 77.46,41.89 166.71,65.97 253,81.69 z M 784,73 h 2 l 17.58,48 9.06,22.96 7.36,8.04 -27,-1.04 c -3.88,-0.17 -8.37,-0.03 -10,-3.96 9.04,1.23 8.97,-3.15 6.67,-10 -0.57,-1.68 -1.4,-4.34 -2.51,-5.69 -2.01,-2.43 -6.17,-2.67 -9.16,-2.78 -3.01,-0.61 -14.44,-1.25 -16.61,0 -1.55,1.3 -2.82,3.79 -3.59,5.47 -3.47,7.57 -0.36,10.74 7.2,12 v 3 l -25,-2 v -2 c 11,-5.47 11.34,-11.04 17,-21 z m -93,19 c 3.21,-5.55 14.75,-10.83 21,-12 l -4.11,8 c -0.79,2.14 -1.88,16.12 -1.89,19 -0.03,6.64 -1.73,19.81 -0.61,25 0.78,3.61 4.68,10.62 6.61,14 1.3,2.27 3.28,6.03 5.21,7.67 5.33,4.52 7.2,-1.96 12.79,1.33 l -26,14.24 c -4.34,2.21 -8.07,4.99 -13,4.76 2.46,-2.83 7.03,-5.5 7.58,-9.02 0.62,-3.92 -4.4,-11.37 -6.33,-14.98 -4.06,-7.58 -8.2,-9.01 -15.25,-13.42 -5.61,-3.52 -24.16,-16.73 -29,-17.71 -2.28,-0.66 -4.71,-0.15 -7,0 1.56,-4.31 4.04,-4.53 8,-6.73 l 16,-8.56 c 3.51,-1.96 5.24,-3.79 9,-1.58 -1.81,1.47 -4.6,3.19 -3.8,5.98 0.73,2.56 5.61,5.55 7.8,7.02 l 22,14 0.96,-12 V 101 C 701,98.52 701.32,94.46 699.4,92.61 697.35,90.64 693.55,91.67 691,92 Z m 149,40 c 1.1,7.35 -4.29,17.12 4.39,27.98 4.44,5.56 12.94,10.83 19.55,5.59 1.82,-1.44 3.27,-3.3 3.86,-5.57 1.46,-5.61 -3.53,-12.57 -6.47,-17 -3.61,-5.44 -7.53,-10.85 -9.86,-17 -3.6,-9.48 -1.42,-21.38 7.53,-27.01 3.54,-2.22 6.9,-2.88 11,-2.98 7.58,-0.18 11.86,0.9 17.91,5.75 7.63,6.11 6.07,11.93 15.09,7.24 0.56,5.84 -6.81,19.8 -11.05,24 -1.3,-5.69 0.32,-6.74 0,-12 -0.64,-8.51 -8.29,-20.22 -17.95,-18.76 -7.76,1.18 -9.28,8.55 -6.09,14.76 6.64,12.89 17.81,20.98 17.05,37 -0.23,4.97 -1.85,9.15 -5.29,12.82 -2.08,2.21 -4.88,4.04 -7.67,5.23 -3.4,1.44 -7.31,2.08 -11,1.86 -7.16,-0.44 -13.64,-3.48 -18.96,-8.21 -3.09,-2.74 -5.89,-7.36 -10.04,-7.9 -1.46,-0.46 -5.27,0.07 -7,0 L 838,132 Z m -63,-32 h -2 l -11,23 21,1 z m -185,66 54,8.41 24,2.7 7,-3.11 c 0.19,4.77 -1.5,6.13 -3.95,10 -3.54,5.6 -10.84,18.9 -16.05,22 -0.01,-4.05 1.65,-6.74 0.77,-8.72 -1.13,-2.55 -5.33,-3.21 -7.77,-3.67 -9.49,-1.77 -9.74,1.44 -16.05,11.39 -1.25,1.97 -4.08,5.85 -4.45,8 -0.73,4.24 5.79,12.87 10.5,11.55 l 8,-4.55 c -1.51,6.16 -9.39,19.08 -15,22 -0.01,-13.16 -4.96,-18.33 -12,-29 l -17.33,-27 c -3.42,-5.15 -9.92,-14.49 -11.67,-20 z m 288,16 12,2.74 15,-2.49 60,-11.25 -10.6,19 -18.6,31 -10.32,20 0.52,7 c -4.87,-2.51 -6.32,-5.66 -9.42,-10 L 905,218 c 5.24,0.03 5.66,3.59 8.98,2.66 2,-0.55 3.8,-3.03 4.93,-4.66 6.14,-8.86 3.27,-10.23 -4.49,-21 -1.64,-2.28 -3.75,-5.66 -6.46,-6.68 -3.06,-1.15 -12.78,0.97 -13.44,6.7 -0.16,1.43 1.14,6.07 1.48,7.98 -5.31,-2.92 -13.24,-15.36 -16,-21 z m 60,-1 -25,5 c 2.12,5.46 7.79,14.29 13,17 z m -303,10 -26,-4 13,22 h 2 z m -76,27 h 3 c 0.51,8.69 6.11,12.12 12,18 l 23,20.86 c 2.92,1.59 8.59,2.44 12,3.14 2.49,0.52 7.72,2.01 9.98,1.6 6.54,-1.19 4.15,-7.32 10.02,-9.6 l -6.79,31 c -0.9,4.19 -0.87,9.25 -5.02,11 0.15,-2.57 1.08,-6.56 0,-8.96 -1.78,-5.41 -12.06,-6.6 -17.19,-7.6 -7.43,-1.45 -11.06,0.73 -18,2.7 l -28,8.3 c -7.93,2.99 -6.65,5.71 -12,7.56 l 5.42,-26 c 0.92,-4.16 0.89,-7.56 4.58,-10 0.03,2.43 -0.32,6.43 2.31,7.68 2.24,1.07 8.27,-0.98 10.69,-1.68 l 25,-7 -19,-18.02 c -2.05,-1.92 -5.94,-6.09 -8.95,-5.87 -3.77,0.27 -2.71,3.99 -8.05,5.89 z m 438,23 h 2 l 3.16,17 v 10 l -13.15,16 -25.01,27 25,-3.87 c 3.76,-0.53 9.67,-1.3 12.61,-3.83 2.94,-2.53 3.19,-5.72 3.39,-9.3 l 2.29,2.27 3.71,22.73 -10.02,-7.77 -21.98,2.35 -46,6.42 c 2.08,-7.1 10.77,-14.39 15.72,-20 l 37.28,-41 -37,5.73 c -10.33,1.49 -17.67,1.61 -18,14.27 -3.44,-2.3 -2.96,-4.14 -3.59,-8 -1.01,-6.18 -2.27,-12.76 -2.41,-19 5.41,3.35 3.6,7.54 10.02,8.89 3.5,0.74 9.34,-0.39 12.98,-0.89 l 27,-4 c 3.02,-0.41 13.72,-1.81 15.83,-3.02 4.39,-2.52 5.89,-7.28 6.17,-11.98 z m -44,94 4.16,9.79 18.84,11.49 37,20.72 v 2 l -24,2.17 -44,2.83 c 4.41,4.49 20.64,12.81 27,16.3 3.17,1.75 9.73,5.76 13,6.49 4.1,0.92 5.62,-0.88 8,-3.79 h 2 c 0.52,6.4 -5.73,14.54 -9,20 l -3,-1 c 3.16,-9.06 -1.86,-10.86 -9,-14.86 l -29,-16.28 c -3.57,-1.99 -13.79,-8.85 -17,-3.01 -1.85,3.37 8.61,10.44 11,12.27 l 27,20.51 c 5.73,4.29 9.08,8.45 15,2.37 h 2 l 1,1 c -2.37,5.27 -8.91,13.09 -12.63,18 -2.72,3.6 -3.58,5.95 -8.37,6 1.15,-2.67 2.65,-5.05 1.13,-7.91 -1.38,-2.6 -8.5,-7.74 -11.13,-9.72 l -23,-17.5 c -3.69,-2.79 -11.05,-10.49 -15.52,-5.84 -4.13,4.31 5.39,12.79 8.1,15.97 l 19.69,23 c 2.18,2.54 6.86,8.55 9.74,9.72 2.98,1.2 5.38,-0.43 7.99,-1.72 -0.05,4.61 -1.72,5.2 -5,8.15 -4.8,4.32 -12.41,12.85 -19,12.85 1.45,-2.46 3.52,-4.99 2.62,-8 -0.77,-2.54 -7.82,-10.59 -9.9,-13 L 907,427 l 23,59 c -6.59,-1.25 -14.04,-6.57 -20,-10 l -35,-20 21.87,26 c 2.47,2.87 8.15,10.1 11.22,11.67 3.2,1.64 5.77,0.3 8.91,-0.67 l 1,1 v 2 c -4.92,3.71 -10.69,10.96 -17,11 1.57,-3.76 3.51,-5.79 1.53,-10 -1.31,-2.8 -5.75,-7.43 -7.95,-10 l -17.16,-20 c -2.34,-2.75 -8.74,-10.72 -11.43,-12.21 -3.31,-1.82 -5.85,0.01 -8.99,1.21 l -1,-1 v -2 c 3.58,-2.7 14.83,-13.21 18,-13.87 3.25,-0.69 9.07,3.49 12,5.15 L 915,461 903.6,432 c -0.96,-2.41 -4.67,-10.96 -4.68,-12.96 -0.02,-3.44 3.74,-5.76 6.06,-7.79 4.96,-4.35 4.74,-5.21 8.41,-10.25 l 15.02,-20 c 1.67,-2.46 5.25,-9.65 7.22,-11.01 1.92,-1.32 14.45,-1.97 17.37,-1.99 5.64,-0.04 27.15,-1.62 32,-3 l -20,-10.42 -11,-4.48 -7,3.9 -2,-1 z m -350,3 h 2 l 7.87,19 -6.47,13 -18.4,30 20,-9.7 c 3.29,-1.56 8.28,-3.41 10.4,-6.43 1.92,-2.73 1.28,-4.91 0.6,-7.87 5.51,0.06 6.41,5.71 8.8,10 4.91,8.85 14.56,16.64 18.2,26 l -1,1 h -2 c -5.74,-7.17 -9.1,-2.42 -15,2.12 l -21,16.48 c -3.91,3.13 -9.46,7.13 -11.99,11.4 -4.16,7.02 1.56,14.96 8.99,15.8 10.16,1.14 26.98,-14.95 35,-21.15 2.86,-2.21 9.34,-6.82 11.02,-9.74 1.93,-3.37 0.42,-5.76 -1.02,-8.91 7.67,0.39 6.76,6.07 15.01,11.56 9.09,6.04 27.02,14.18 32.73,22.53 6.41,9.38 0.91,23.62 -8.74,28.46 -3.67,1.84 -8,1.45 -11.79,1.45 v 31 l 2.79,7 -1,1 c -4,-1.17 -14.76,-6.39 -16.4,-10.21 -1,-2.32 -0.64,-18.18 -0.6,-21.79 0.08,-6.34 3.14,-11.54 -3,-15 l -7.71,15 -3,7.96 3.71,5.04 -1,3 -27,-16 1,-1.85 c 2.66,0.51 5.31,1.69 7.9,0 2.5,-1.34 6.02,-7.48 7.68,-10.15 l 15.41,-26 c 2.03,-3.45 8.28,-12.1 6.2,-15.89 -4.5,-8.22 -15.06,2.8 -19.19,6.01 l -15,11.51 c -10.06,7.54 -21.5,15.67 -33.91,7.24 -2.42,-1.65 -4.96,-4.49 -6.66,-6.87 -14.65,-20.63 11.97,-35.36 25.57,-46.2 3.06,-2.44 15.68,-10.36 13.83,-14.59 -1.15,-2.64 -4.39,-2.92 -6.83,-2.38 -3.07,0.68 -13.53,6.19 -17,7.92 l -16,7.67 -25,11.58 -1,-1 11.19,-20 22.81,-39 -32,15.25 c -7.77,3.88 -12.49,5.05 -11,14.75 l -1,1 h -2 l -9,-19 2,-2 h 1 c 7.51,9.12 14.28,2.58 23,-1.75 l 24,-11.5 c 3.53,-1.76 8.62,-3.81 11.03,-6.92 2.25,-2.9 2.07,-6.44 2.97,-9.83 z m -8,19 h -1 l 1,1 z M 47.96,390.17 c 0.6,0.07 1.11,-0.42 2.66,0.56 1.64,1.03 10.06,14.73 11.51,17.27 4.05,7.09 7.54,14.66 7.53,23 C 69.64,448.49 54.31,466.33 36,464.81 20.89,463.56 14.18,451.53 6.95,440 5.17,437.17 0.03,430.47 1.24,427.17 2.22,424.52 10.43,418.81 13,416.79 L 35,399.4 c 4.1,-3.28 8.09,-7.22 12.96,-9.23 z M 1456,394 l 52,34 -7,16 c -7.61,-1.36 -13.38,-0.99 -21,-1 -8.33,-0.01 -16.8,-2.33 -25,0 l 34,22 -7,14 c -6.52,-2.5 -27.78,-17.67 -35,-22.49 -2.8,-1.87 -13.95,-8.81 -15.36,-10.84 -2.3,-3.3 0.29,-6.72 1.94,-9.67 5.17,-9.26 3.93,-10.24 14.42,-9.99 9.23,0.22 18.9,2.57 28,0 L 1449,409 Z M 48.81,412.65 c -1.21,-0.13 -0.63,-0.75 -2.82,0 L 26,428.08 c -1.67,1.4 -5.04,3.98 -5.76,6.01 -1.97,5.56 7.87,13.04 12.76,13.68 8.32,1.1 18.14,-6.23 21.01,-13.77 2.51,-6.59 0.99,-17.6 -5.2,-21.35 z M 65,519 46.12,495 c -1.76,-2.29 -6.16,-7.23 -6.3,-10 -0.16,-3.44 4.87,-7.71 7.18,-10 l 26,-25 c 2.38,-2.38 8.33,-9.63 11.91,-8.66 2.26,0.61 5.06,4.8 6.46,6.66 l 13.84,18 c 1.5,1.92 4.74,5.57 4.92,8 0.24,3.27 -4.63,8.58 -8.04,7.66 C 99.57,480.99 95.6,475.17 94,473 l -9,-11 -7,8 c 4.39,3.63 7.82,8.38 11.11,13 1.16,1.63 2.94,3.88 2.78,6 -0.25,3.48 -5.27,7.13 -7.89,9 L 68,478 c -2.13,2.97 -8.53,8.75 -8.09,12 0.55,4.11 13.58,16.49 13.3,20.7 -0.13,1.84 -2.11,3.58 -3.39,4.72 z m 599,-48 c 5.63,1.88 10.17,4.71 15.91,0.99 7.04,-4.56 14.97,-22.81 -1.91,-26.99 z m 751,12 c -2.02,-1.67 -5.89,-4.43 -6.56,-7.01 -0.94,-3.62 7.63,-14.6 9.89,-17.99 1.9,-2.85 5.74,-10.48 9.71,-9.83 1.29,0.21 2.87,1.29 3.8,2.18 5.47,5.22 -1.4,7.45 1.7,12.64 1.38,2.32 7.13,6.82 9.46,8.76 6.23,5.21 12.25,10.73 19,15.25 l 4,-7 c 2.78,1.63 7.6,4.41 7.9,8 0.2,2.53 -3.15,6.87 -4.57,9 L 1456,517 c -2.67,-1.7 -7.56,-4.54 -7.67,-8.01 -0.53,-3.18 2.86,-4.9 0,-8.95 -0.93,-1.78 -6.41,-6.26 -8.33,-7.91 L 1420,476 Z M 841,454 c 7.11,2.09 11.02,8.88 16.01,14 l 15.82,16 c 4.77,5.27 14.57,16.57 20.17,20.11 2.15,1.37 4.62,2.04 7,2.89 v 2 l -27,11 3.14,-7.04 c 0.13,-2.29 -1.79,-4.39 -3.24,-5.95 -1.45,-1.57 -3.75,-3.89 -5.9,-4.35 -2.8,-0.61 -13.62,4.41 -15.36,6.73 -2.24,2.98 -0.67,11.65 2.7,13.5 L 862,524 c -4.41,4.91 -12.87,7.55 -19,10 l 2.96,-13 -2.79,-40 z m 34,1 h -1 l 1,1 z m 41,6 h -1 l 1,1 z m -173,3 4.16,33 4.36,36 4.48,10 -29,-7 1,-3 c 10.32,1.7 6.51,-9.66 6,-16 -13.75,-1.94 -17.49,-7.15 -22.81,3 -0.79,1.5 -1.57,3.22 -1.25,4.96 0.6,3.34 3.36,3.12 5.06,8.04 l -20,-4 6.9,-6.27 7.38,-9.73 20.72,-31 z m 41,4 1,4 c -8.66,1.01 -8.16,5.6 -7.99,13 l 0.99,9 v 10 l 1,14 c 0.04,3.25 0.71,13.14 2.65,15.46 1.91,2.3 5.67,1.65 8.35,1.54 12.46,-0.54 15.37,-11.42 17,-22 h 3 l -1,-6 26,-5 1.34,10.57 -6.34,3.03 -19,3.4 -1,-6 v 19 l -1.02,6.4 -5.98,1.6 -46,2 v -3 c 10.49,-1.23 7.02,-10.2 7,-18 l -2,-35 c -0.08,-6.47 -0.21,-11.87 -8,-12 l -1,-4 z m -672,10 c 3.71,1.72 11.27,6.81 12.19,11 0.67,3.05 -3.03,9.14 -4.43,12 L 107,528 129,509.75 c 2.18,-1.8 7.21,-6.63 10,-6.57 3.29,0.08 11.1,7.45 11.08,10.86 -0.02,2.09 -3.49,9.62 -4.5,11.96 L 134,552 155,533.84 c 2.31,-2.07 6.74,-6.95 10,-6.73 3.13,0.21 9.78,7.32 12,9.89 l -32,26.8 -16,12.83 c -1.46,0.5 -2.42,0.76 -4,0 -2.55,-0.69 -10.46,-7.98 -10.88,-10.72 -0.39,-2.6 2.95,-9.34 4.11,-11.91 l 9.77,-24 -19,15.2 c -1.81,1.46 -7.07,6.04 -9,6.48 -3.22,0.73 -11.61,-7.03 -12.96,-9.85 -0.54,-1.4 -0.4,-2.39 0,-3.83 l 8.11,-20 z m 1290,1 c 5.32,2.52 8.88,6.88 13,11 l 21,22 c 2.5,2.51 10.74,9.7 10.82,13 0.06,2.71 -6.01,9.39 -7.82,12 h -3 l -26,-27 6.8,17 c 0.83,2.09 2.55,5.83 2.39,8 -0.25,3.56 -4.48,8.7 -8.28,8.49 -2.47,-0.14 -18.74,-7.02 -21.91,-8.49 4.33,6.04 13.43,14.42 19,20 2.02,2.02 6.71,6.08 6.84,9 0.16,3.51 -6.23,9.84 -8.84,12 l -30,-30 c -2.61,-2.61 -11.82,-11.97 -12.76,-15 -1.01,-3.29 2.25,-6.65 4.18,-9 1.67,-2.02 4.02,-5.15 6.75,-5.6 2.28,-0.39 6.59,1.46 8.83,2.28 l 20,7.32 -8,-22 -2.86,-11 z m -553,2 c -1.22,3.33 0.17,17.89 1,22 l 14,-6 z m -118,9 c -4.26,4.31 -9.84,12.36 -12,18 l 14,4 z m 679,19 h -1 l 1,1 z M 129,529 h -1 l 1,1 z m 1225,89 -14.02,-48 c -1.16,-3.75 -5.86,-16.77 -4.66,-19.83 1.26,-3.19 10.07,-10.67 13.68,-9.94 2.35,0.48 10.52,7.28 13,9.14 l 26,19.75 c 4.48,3.42 10.21,6.3 12,11.88 -2.68,1.86 -9.22,7.83 -12,7.83 -4.74,0 -7.2,-7.36 -13,-4.12 l -3,2.35 c -2.48,2.11 -7.25,5.64 -7.64,8.95 -0.39,3.26 3.05,8.38 1.97,11.71 -1.25,3.86 -8.7,8.73 -12.33,10.28 z M 162,591 c -2,2.43 -6.69,7.66 -10,7.68 -3.11,0.02 -11.63,-6.16 -10.66,-9.68 0.75,-2.73 11.89,-11.11 14.66,-13.41 l 23,-19 c 2.22,-1.85 8.56,-7.54 11,-8.12 3.61,-0.86 12.47,6.38 13.8,9.62 1.14,2.81 -2.75,15.34 -3.68,18.91 L 187,627 c -3.82,-2.41 -11.88,-7.23 -12.39,-12 -0.34,-3.22 2.41,-7.93 1.61,-10.91 C 175.36,600.89 165.01,593.6 162,591 Z m 1191,-30 5,20 c 4.82,-2.06 6.86,-3.82 10,-8 z m -1166,9 -15,13 10,7 z m 36,1 c 3.49,1.7 14.31,7.93 15.91,11.18 0.74,1.82 0.12,6.55 0,8.82 0,8.58 0.94,24.41 -0.91,32 4.21,-4.21 13.96,-23.68 17,-30 3.44,1.27 11.39,4.96 11.77,9.09 0.24,2.73 -5.95,12.78 -7.52,15.91 L 238,659 c -4.32,-1.03 -10.77,-4.03 -12.98,-8.09 -1.5,-2.76 -1.06,-11.44 -1.02,-14.91 0.13,-10.75 2.94,-25.66 0,-36 l -19,38 -13,-8 z m 538,8 17,-1 h 22 c 16.52,0.03 39.01,5.39 54,12.31 21.82,10.07 29.49,22.61 42,30.23 12.23,7.45 20.07,8.62 34,8.46 9.9,-0.12 21,-3.87 30,-7.86 2.8,-1.24 10.96,-6.08 13,-6.18 3.64,-0.18 7.44,4.56 10,6.87 6.01,5.42 23.92,20.18 27,26.17 l -12,8.02 c -14.16,7.32 -39.04,11.79 -55,11.98 -14.43,0.17 -26.17,1.02 -40,-4.05 -14.09,-5.17 -30.26,-13.44 -43,-21.37 l -29,-18.31 c -7.52,-3.76 -15.72,-4.62 -24,-5.32 -2.88,-0.06 -10.02,0.68 -11.91,0 -2.57,-1.25 -8.42,-8.52 -10.51,-10.95 -5.68,-6.58 -20.42,-22.19 -23.58,-29 z m 570.96,13.08 c 5.66,-0.31 8.29,7.55 6.34,10.6 -1.35,2.11 -15.72,12.08 -18.28,12.9 -4.69,1.5 -8.63,-5.52 -6.89,-9.49 1.36,-3.11 15.32,-12.29 18.83,-14.01 z M 1288,664 1266.3,620 c -1.46,-3.09 -6.9,-12.9 -5.9,-15.79 1.09,-3.16 9.51,-7.07 12.6,-8.21 l 16.3,33 6.7,14 23,-13 c 1.2,2.8 4.89,9.03 3.77,11.79 -0.97,2.38 -7.43,5.97 -9.77,7.4 z m -994,-50 12.89,7.39 -0.94,7.61 -6.95,18 18,-11.66 10,-4.73 15,6.39 c -4.38,5.16 -14.01,10.19 -20,13.95 -2.73,1.71 -7.51,4.2 -8.89,7.14 -1.24,2.64 0.45,8.87 0.97,11.91 L 319,700 302.82,692.35 300.41,683 297,660 c -6.74,5.49 -9.3,15.91 -12,24 l -15,-7 z m 938,81 -1.83,-20 -2.34,-29 c -0.37,-3.8 -2.45,-19.03 -1.26,-21.61 1.48,-3.18 11.98,-7.41 15.43,-8.39 l 43,53 c -2.74,1.56 -11.03,6.48 -13.91,6.01 -3.79,-0.62 -5.85,-6.53 -9.26,-7.6 -2.37,-0.75 -5.73,1.3 -7.83,2.34 -9.96,4.97 -9.57,7.69 -7,18.25 z m 10,-56 1,21 10,-4 z m -897,2 28,11.42 c 2.66,1.14 8.33,2.96 9.31,5.8 1.06,3.08 -1.9,9.03 -3.31,11.78 l -24,-10 -3,10 22,9 -4,13 -23,-9 -4,16 23,9 -4,13 -27,-11.15 c -2.4,-1.03 -8.64,-3.25 -9.94,-5.34 -1.71,-2.76 2.52,-13.18 3.61,-16.51 z m 818,13.52 c 3.03,-0.48 4.93,-0.58 8,-0.51 22.36,0.55 31.67,28.59 25.64,46.99 -4.4,13.44 -12.73,16.94 -24.64,22.3 l -11.96,5.02 c -4.88,1.01 -5.45,-3.71 -6.73,-7.32 l -8.31,-24 -7.33,-21 c -0.72,-2.16 -2.52,-6.64 -1.89,-8.78 0.78,-2.62 4.91,-3.93 7.22,-4.99 6.57,-3.01 13,-5.85 20,-7.71 z m -773,3.48 16.02,6.7 2.06,11.3 1.92,23 15.4,-18 7.64,-6.89 15.96,4.89 -8,30 -10,35 -15,-5 11,-39 -16.3,18.89 c -3.2,1.56 -9.24,-0.86 -10.58,-4.11 C 398.79,711.53 398,694.32 398,690 l -5.42,14 -6.58,24 -14,-4 6.12,-25 z m 777,53 c 4.95,-2.13 10.18,-4.34 13.28,-9.02 5.49,-8.3 1.33,-25.22 -6.46,-30.85 -7.72,-5.58 -17.97,-1.51 -19.04,2.09 -0.79,2.66 4.69,17.35 5.91,20.78 z m -70,-32 32,-11 3,12 -8,2 12,42 8,-3 c 0.87,2.66 3.39,8.98 1.89,11.49 -1.23,2.06 -6.6,3.41 -8.89,4.18 l -21,7.33 -4,-12 8,-2 -11,-42 -8,3 z m -31,21 c -0.43,-2.28 -2.08,-8.69 -1.34,-10.58 0.97,-2.46 5.06,-3.19 7.34,-3.84 l 20,-5.58 7.21,30 4.46,21 c 1.08,12.62 -8.61,20.12 -19.67,23.08 -2.3,0.61 -9.34,2.29 -11.27,0.89 -2.03,-1.48 -3.36,-10.33 -3.73,-12.97 3.22,0 6.91,0.17 10,-0.8 8.53,-2.68 8.76,-8.69 7.12,-16.2 L 1080,697 Z M 471,686 c 3.58,0.55 13.9,2.73 16.02,5.51 2.65,3.47 1.72,13.03 2.15,17.49 l 2.66,39 c 0.57,6 -0.46,7.3 1.17,14 -3.52,-0.17 -12.81,-1.73 -14.99,-4.56 -4.07,-5.27 2.21,-12.12 -9.01,-15.72 -2.91,-0.93 -7.94,-2.88 -10.62,-1.03 -2.83,1.95 -4.13,7.43 -7.59,8.62 -2.52,0.87 -10.48,-1.8 -13.79,-2.31 1.25,-6.15 7.42,-15.32 10.8,-21 z m 548,62 c 9.17,1.71 14.52,7.14 25,3.39 4.71,-1.69 9.95,-6.29 4.71,-10.89 -4.52,-3.98 -11.86,-1.67 -18.71,-2.97 -13.03,-2.46 -18.98,-15.62 -14.44,-27.53 4.62,-12.1 17.82,-15.8 29.44,-16.68 2.24,-0.17 8.68,0.35 10.42,1.7 2.46,1.92 3.43,11.8 3.58,14.98 -7.57,-1.17 -14.06,-5 -22,-1.85 -5.75,2.28 -8.45,7.7 -3.77,10.87 6.78,4.58 21.86,-2.13 30.12,9.02 8.09,10.92 2.86,26.85 -8.35,33.06 -10.45,5.78 -21.61,5.4 -33,3.9 z m -521,14 8,-45 3.39,-17.87 c 2.1,-5.61 14.02,-0.95 14.76,1.3 0.98,1.7 0.09,5.69 0,7.57 -1.27,6.17 -3.63,12.8 -2.15,19 2.97,-6.27 10.04,-11.97 14.96,-16.99 2.22,-2.26 4.84,-5.64 8.08,-6.21 3.03,-0.54 12.64,2.24 15.96,3.2 l -17,18 -7.37,9 3.05,11 11.32,29 c -3.76,-0.32 -15.8,-2.37 -18.35,-4.72 -2.06,-1.9 -3.44,-6.6 -4.46,-9.28 L 521,740 c -5.18,6.57 -6.33,17.72 -7,26 z m 476,-53 17,-3 30,64 -16,3 c -1.85,-3.27 -4.57,-11.13 -8.11,-11.96 -2.93,-0.7 -14.01,1.68 -15.72,4.27 -1.19,1.82 -1.96,10.16 -2.17,12.69 l -16,2 z m -499,0 -10,18 11,3 z m 89,0 16.52,3.17 3.83,9.83 6.65,24 11.4,-21 5.81,-7.4 16.79,1.4 -3.73,31 -5.27,37 c -2.77,-0.37 -12.43,-1.57 -13.91,-3.59 -1.61,-2.04 -0.25,-8.75 0,-11.41 0.94,-7.34 4.44,-22.58 2.91,-29 l -12,24 -10.42,-2.85 -2.93,-8.15 -4.65,-19 -6,42 c -2.65,-0.5 -11.52,-1.68 -12.97,-3.59 -1.76,-2.32 0.52,-14.11 0.97,-17.41 z m 360,41 6.15,-25 4.15,-8.83 16.7,-2.17 1.84,17 3.32,32 c 0.33,3 2.32,15.33 0.83,17.26 -1.65,2.15 -12.11,2.68 -14.99,2.74 -0.02,-7.24 -2.94,-35.76 -5,-42 -0.34,4.05 -4.41,22.84 -6.3,25.7 -1.89,2.86 -8.18,4.3 -11.07,2.31 -1.71,-1.19 -3.42,-5.09 -4.38,-7.01 -2.98,-5.94 -4.54,-9.31 -8.25,-15 l 4,41 -15,1 -5.08,-49 -0.88,-17.4 L 907,719 Z m -290,-31 16,2 -4,42 c -0.04,3.47 -0.37,7.88 1.74,10.81 4.47,6.24 12.48,4.7 15.69,-1.83 2.24,-4.54 2.24,-12.88 2.74,-17.98 L 669,724 c 2.94,0.03 13.25,0.36 14.97,2.6 1.74,2.25 -0.6,15.89 -0.89,19.4 l -1.8,18 c -1.79,14.54 -4.19,27.23 -22.28,27.96 -15.71,0.64 -28.79,-6.99 -29,-23.96 z m 60,6 19,0.96 c 5.54,0.25 13.09,0.32 18,3.13 13.03,7.44 12.55,28.56 -3,36.91 l 16,27 15.16,-45 c 1.13,-3.47 4.69,-16.38 6.68,-18.4 2.14,-2.18 8.19,-1.65 11.16,-1.6 7.67,0.13 6.65,1.87 10.58,16 L 802,797 h -10 c -11.36,-0.21 -5.12,-7.46 -10.51,-12.41 -2.81,-2.57 -14.01,-3.7 -16.93,-0.99 -1.98,1.84 -3.92,9.58 -4.56,12.4 -4.42,0 -10.33,-1.47 -14,1 -5.5,-0.99 -15.89,-0.26 -19.47,-3.51 -4.51,-4.08 -11.39,-20.89 -15.74,-23.47 -1.38,-0.82 -2.32,-0.78 -3.79,-1.02 l -1,17 -1.6,6.97 H 690 L 692,754 Z m 147,1 15,-1 1,19 1,15 2,34.21 H 845.38 L 837.42,782 820,752 l 2,44 c -8.5,0.03 -14.84,4.38 -15,-7 l -2,-38 c -0.02,-4.25 -2.27,-18.46 0,-21.26 1.62,-2.02 5.66,-1.7 8,-1.65 2.28,-0.13 7.05,-0.73 8.9,0 3.08,1.48 7.82,10.68 9.67,13.91 L 843,762 Z m 145,4 c -2.63,5.05 -3.61,14.37 -3,20 l 10,-3 c -3.75028,-8.50164 -0.59421,-1.46864 -7,-17 z m -278,25.84 c 3.65,0.64 7.48,1.65 10.95,0 5.23,-2.88 6.91,-11.14 1.82,-14.83 C 717.51,738.63 712.84,739 709,739 Z m 66,-5.84 -6,19 11,1 z m 70,12 h -1 l 1,1 z"
     sodipodi:nodetypes="ccccccccccccccccccccccccccccccccccscccccccccccccccccccccccccccccccccccccccccccccccccccccccccccccccccccccccccccccccccccccccccccccccccccccccccccccccccccccccccccccccccccccccccccccccccccccccccccccccccsccccccccccccccccccccccccccccccccccccccccccccccccccccccccccccccccccccccccccccccccccccccccccccccccccccccccccccccccccccccccccccccccccccccccccccccccccccccccccccccccccccccccccccsccccccccccccccccccccccccccccccccccccssccccccccccccccccccccccccccccccccccccccccccccccccccccccccccccccccccccccccccccccccccccccccccccccccccccccccccccccccccccccscccccccccccccccccccccccccccccccsccccccccccccccccccccccccccccccccccccccccccccccccccccccccccccccccccccccccccccccccccccccccccccccccccccccccccccccccccccccccccccccccccccccccccccccccccccccccccccccccccccccccccccccccccccccccccccccccccccccccccccccccccccccccccccccccccccccccccccccccccccccccccccccccccccccccccccccsccccccccccccccccccccccccccccccccccccccccccccccccccccccccccccccccccccccccccccccc"
     style="fill:#ffffff;fill-opacity:1;stroke:none" /><path
     d="m 766.20559,220.93354 c 3.18,0.9 11.22,3.67 12.98,6.39 l 2.67,15.61 c 1.54,4.74 4.38,6.49 8.35,9 -1.38,5.7 -0.73,5.78 -1.09,11 l -0.91,12 c -0.02,15.67 0.33,28.5 3.45,44 l 4.55,17 c 2.75,-0.1 5.32,0.04 7.26,-2.31 1.74,-2.11 1.7,-5.11 1.74,-7.69 0.12,-9.39 0.3,-21.2 -3,-30 -11.19,-0.11 -3.95,-17.9 -0.53,-22.94 3.84,-5.66 10.38,-4.06 16.53005,-4.06 0,20.54 1.2999,52.16 9.09,71 3.55,8.56 9.03,14.82 18.91,12.9 3.5499,-0.69 6.15,-1.86 8.27,-4.95 3.71,-5.41 1.11,-14.4 -1.13,-19.95 -3.2,-7.89 -6.51,-15.73 -10.95,-23 -3.51,-5.74 -8.6201,-12.14 -9.0901,-19 -0.94,-13.45 6.4201,-15.43 17.8801,-14.98 5.96,0.23 5.3199,2.4 10.0599,6.52 3.33,2.88 7.75,5.4 9.78,9.46 2.9,5.79 -0.05,9.74 -5.82,11 l 4.57,13 c 4.54,14.84 8.77,39.7 -3.67,51.82 -2.36,2.29 -6.9299,5.33 -9.8999,6.8 -11.4201,5.68 -23.1301,3.59 -33.0001,-4.14 -3.07,-2.4 -8.8,-9 -11.99995,-9.67 -1.78,-0.38 -3.48,0.31 -4.98,1.2 -6.53,3.88 -7.01,9.21 -7.02,15.99 v 19 c -0.01,1.96 0.17,4.7 -0.99,6.37 -2.3,3.28 -11.12,6.02 -15.01,6.63 v -36 c -2.93,1.16 -5.83,2.46 -9,2.81 -9.53,1.08 -18.72,-4.88 -23.52,-12.81 l -5.48,-12 c -0.52,5.72 -2.71,10.89 -5.27,16 -2.1,4.19 -4.28,7.61 -7.77,10.82 -9.29,8.53 -20,7.68 -28.06,-1.99 -6.02,-7.22 -12.44,-28.36 -12.9,-37.83 -0.19,-3.94 -2.56,-16.48 0.6,-18.98 1.59,-1.25 5.41,-1.02 7.4,-1.02 h 10 v 16 l 1.15,14 c 0.97,7.76 5.17,24.24 14.69,11.96 l 3.26,-4.96 c 5.59,-10.2 7.92,-28.34 9.48,-40 0.41,-3.11 0.87,-14.31 2.41,-16.28 1.33,-1.69 4.98,-2.32 7.01,-2.87 l 16,-3.85 c -2.35,17.42 -6.09,25.99 -6,45 0.04,7.32 1.66,15.76 8.09,20.3 10.55,7.44 13.14,-8.3 12.87,-15.3 -0.45,-11.52 -7.88,-60.43 -10.41,-73 l -6.93,-28 c 0.08,-3.47 3.76,-12.68 5.38,-16 z"
     style="fill:#ffffff;fill-opacity:1;stroke:none;stroke-width:1"
     id="path1" /></svg>
