<?xml version="1.0" encoding="UTF-8" standalone="no"?>
<svg
   viewBox="0 0 448 512"
   version="1.1"
   id="svg1"
   sodipodi:docname="hadith.svg"
   inkscape:version="1.4.2 (f4327f4, 2025-05-13)"
   xmlns:inkscape="http://www.inkscape.org/namespaces/inkscape"
   xmlns:sodipodi="http://sodipodi.sourceforge.net/DTD/sodipodi-0.dtd"
   xmlns="http://www.w3.org/2000/svg"
   xmlns:svg="http://www.w3.org/2000/svg">
  <defs
     id="defs1" />
  <sodipodi:namedview
     id="namedview1"
     pagecolor="#ffffff"
     bordercolor="#000000"
     borderopacity="0.25"
     inkscape:showpageshadow="2"
     inkscape:pageopacity="0.0"
     inkscape:pagecheckerboard="0"
     inkscape:deskcolor="#d1d1d1"
     inkscape:zoom="1.5097656"
     inkscape:cx="223.87581"
     inkscape:cy="203.01164"
     inkscape:window-width="1920"
     inkscape:window-height="991"
     inkscape:window-x="-9"
     inkscape:window-y="-9"
     inkscape:window-maximized="1"
     inkscape:current-layer="svg1" />
  <!--! Font Awesome Free 6.0.0-beta2 by @fontawesome - https://fontawesome.com License - https://fontawesome.com/license/free (Icons: CC BY 4.0, Fonts: SIL OFL 1.1, Code: MIT License) -->
  <path
     d="M 327.40806,49.01423 H 81.612454 c -21.434347,0 -38.809832,17.375485 -38.809832,38.809832 V 320.68305 c 0,11.4489 5.050129,21.63648 12.936611,28.73545 v 65.78266 c -7.594599,4.52782 -12.936611,12.45149 -12.936611,21.1837 0,15.03881 11.586352,26.60091 25.145537,26.60091 H 326.68037 c 42.86869,0 77.61966,-34.75097 77.61966,-77.61966 V 126.63389 C 405.02772,83.765201 370.26058,49.01423 327.40806,49.01423 Z m -21.99224,137.7749 c 2.43046,0.34743 3.47267,3.35867 1.62031,5.0946 l -16.65912,16.33166 3.93677,23.04334 c 0.34743,1.96798 -1.27426,3.5891 -3.0118,3.5891 -0.46273,0 -0.92578,-0.11683 -1.38988,-0.34743 l -20.71879,-10.92278 -20.72284,10.88292 c -0.46272,0.2306 -0.92577,0.34743 -1.38987,0.34743 -1.73513,0 -3.35705,-1.62193 -3.01019,-3.5891 l 3.93677,-23.04334 -16.67205,-16.32438 c -1.85237,-1.73512 -0.81016,-4.74693 1.62192,-5.0946 l 23.15654,-3.35705 10.42205,-20.95731 c 0.47461,-1.12201 1.60657,-1.68799 2.65767,-1.68799 1.0511,0 2.20003,0.57956 2.66413,1.73674 l 10.42206,20.95731 z m -87.96895,-79.56015 c 19.13001,0 37.68596,5.62176 53.65459,16.24353 2.60268,1.73108 3.58829,5.07843 2.34961,7.95925 -1.25081,2.86788 -4.40896,4.49709 -7.41591,3.71442 -5.89748,-1.39715 -11.23383,-2.04398 -16.24677,-2.04398 -39.2141,0 -71.15136,31.93726 -71.15136,71.15136 0,39.2141 31.93726,71.15136 71.15136,71.15136 5.04043,0 10.35738,-0.66955 16.24353,-2.04641 3.00696,-0.78324 6.16511,0.84654 7.41592,3.71442 1.23787,2.88001 0.25266,6.22817 -2.34962,7.95925 -15.97348,10.58619 -34.489,16.24596 -53.65135,16.24596 -53.52523,0 -97.02458,-43.49936 -97.02458,-97.02458 0,-53.52523 43.49935,-97.02458 97.02458,-97.02458 z M 327.40806,411.23933 H 94.549064 V 359.49288 H 327.40806 c 14.28686,0 25.87322,11.58636 25.87322,25.87323 0,14.31112 -11.5621,25.87322 -25.87322,25.87322 z"
     id="path1"
     style="stroke-width:0.808538" />
</svg>
