<?xml version="1.0" encoding="UTF-8" standalone="no"?>
<svg
   height="512"
   viewBox="0 0 512 512"
   width="512"
   version="1.1"
   id="svg1"
   sodipodi:docname="mosque_tower.svg"
   inkscape:version="1.4.2 (f4327f4, 2025-05-13)"
   xmlns:inkscape="http://www.inkscape.org/namespaces/inkscape"
   xmlns:sodipodi="http://sodipodi.sourceforge.net/DTD/sodipodi-0.dtd"
   xmlns="http://www.w3.org/2000/svg"
   xmlns:svg="http://www.w3.org/2000/svg">
  <defs
     id="defs1" />
  <sodipodi:namedview
     id="namedview1"
     pagecolor="#ffffff"
     bordercolor="#000000"
     borderopacity="0.25"
     inkscape:showpageshadow="2"
     inkscape:pageopacity="0.0"
     inkscape:pagecheckerboard="0"
     inkscape:deskcolor="#d1d1d1"
     inkscape:zoom="0.75488281"
     inkscape:cx="105.97671"
     inkscape:cy="326.54075"
     inkscape:window-width="1920"
     inkscape:window-height="991"
     inkscape:window-x="-9"
     inkscape:window-y="-9"
     inkscape:window-maximized="1"
     inkscape:current-layer="svg1" />
  <title
     id="title1" />
  <path
     d="M 427.04945,179.43543 394.57169,143.82404 A 10.576917,8.6980808 0 0 0 388.64988,140.79712 134.95582,110.98288 0 0 0 266.82594,51.626179 V 33.428808 a 10.825944,8.9028721 0 0 0 -21.65188,0 v 18.197371 a 135.12905,111.12534 0 0 0 -121.84563,89.170941 10.576917,8.6980808 0 0 0 -5.90012,3.02692 l -32.477752,35.61139 a 10.825913,8.9028465 0 0 0 -1.710461,3.08044 32.250396,26.52158 0 0 0 -11.280595,20.06695 v 17.80573 a 10.825913,8.9028465 0 0 0 10.825866,8.90282 H 126.08906 V 434.05685 H 104.43717 A 32.477741,26.70854 0 0 0 71.959502,460.7654 v 17.80566 a 10.825913,8.9028465 0 0 0 10.825866,8.90289 H 429.21464 a 10.825913,8.9028465 0 0 0 10.82586,-8.90289 V 460.7654 A 32.477741,26.70854 0 0 0 407.56275,434.05685 H 385.91094 V 229.29137 h 43.3037 a 10.825913,8.9028465 0 0 0 10.82586,-8.90282 v -17.80573 a 32.250396,26.52158 0 0 0 -11.2806,-20.06695 10.825913,8.9028465 0 0 0 -1.71045,-3.08044 z M 256,69.04019 a 113.39062,93.248411 0 0 1 110.33771,71.22276 H 145.6731 A 113.5097,93.346344 0 0 1 256,69.04019 Z m -124.49805,89.02842 h 248.996 l 16.23893,17.80573 H 115.26312 Z m 276.0608,293.79397 a 10.825913,8.9028465 0 0 1 10.82594,8.90282 v 8.90283 H 93.611309 v -8.90283 a 10.825913,8.9028465 0 0 1 10.825861,-8.90282 z M 261.41297,266.07799 a 10.825913,8.9028465 0 0 0 -10.73933,0 111.57187,91.752737 0 0 0 -49.52856,80.2235 v 87.75536 h -53.4042 V 229.29137 h 216.51824 v 204.76548 h -53.36089 v -87.75536 a 111.57187,91.752737 0 0 0 -49.48526,-80.2235 z m 27.87668,80.2235 v 87.75536 H 222.75358 V 346.30149 A 93.016249,76.493259 0 0 1 256,284.68489 a 93.49258,76.884977 0 0 1 33.24642,61.6166 z M 418.38869,211.48573 H 93.611309 v -8.90291 A 10.825913,8.9028465 0 0 1 104.43717,193.68 h 303.12558 a 10.825913,8.9028465 0 0 1 10.82594,8.90282 z"
     id="path1"
     style="stroke-width:9.81745" />
</svg>
