<?xml version="1.0" ?><svg viewBox="0 0 64 64" xmlns="http://www.w3.org/2000/svg"><g id="a"/><g id="b"/><g id="c"/><g id="d"/><g id="e"/><g id="f"/><g id="g"/><g id="h"/><g id="i"/><g id="j"/><g id="k"/><g id="l"/><g id="m"/><g id="n"/><g id="o"/><g id="p"/><g id="q"/><g id="r"/><g id="s"/><g id="t"/><g id="u"/><g id="v"/><g id="w"/><g id="x"/><g id="y"/><g id="a`"/><g id="aa"><circle cx="45.21" cy="51.38" r="1"/><circle cx="35.76" cy="47.93" r="1"/><circle cx="29.75" cy="51.82" r="1"/><circle cx="17.81" cy="49.61" r="1"/><path d="M60,26.39c0-9.15-3.09-16.05-7.2-16.05-3.14,0-5.7,4.05-6.73,10.37-.23-.05-.44-.14-.69-.14h-.24c-.22-7.43-2.83-12.94-6.28-12.94s-6.06,5.51-6.28,12.94h-1.17c-.22-7.43-2.83-12.94-6.28-12.94s-6.06,5.51-6.28,12.94h-.24c-.24,0-.46,.09-.69,.14-1.02-6.33-3.59-10.37-6.73-10.37-4.1,0-7.2,6.9-7.2,16.05,0,8.38,2.61,14.8,6.19,15.84v4.2c-4.33,2.02-6.19,4.5-6.19,6.42s1.71,3.53,3.8,3.53H56.2c2.1,0,3.8-1.58,3.8-3.53s-1.86-4.4-6.19-6.42v-4.2c3.59-1.03,6.19-7.46,6.19-15.84Zm-7.2-14.05c2.46,0,5.2,5.77,5.2,14.05,0,7.16-2.05,12.43-4.19,13.72v-7.62l2.62-2.42c.41-.38,.43-1.01,.06-1.41-.37-.41-1.01-.43-1.41-.06l-1.26,1.16v-9.55c0-.55-.45-1-1-1s-1,.45-1,1v2.05l-.7-.59c-.42-.36-1.05-.31-1.41,.11-.36,.42-.31,1.05,.11,1.41l1.99,1.7v15.18c-1.65-1.03-3.35-4.49-3.96-9.73,.54-.59,.89-1.36,.89-2.23v-4.2c0-.81-.33-1.53-.81-2.11,.83-6.14,3.11-9.47,4.88-9.47Zm-11.64,30.92v-2.29h2.34v2.6c-.75-.11-1.53-.22-2.34-.31Zm-20.68-2.29h2.34v2.29c-.81,.09-1.59,.2-2.34,.31v-2.6Zm4.34,0h14.33v2.08c-2.19-.18-4.57-.28-7.17-.28s-4.98,.1-7.17,.28v-2.08Zm20.56-2H18.61c-.74,0-1.35-.6-1.35-1.35s.6-1.35,1.35-1.35h26.78c.74,0,1.35,.6,1.35,1.35s-.6,1.35-1.35,1.35Zm-27.36-7.63c.16,.03,.3,.09,.46,.09v2.87c-.38,.01-.74,.09-1.07,.22,.25-.99,.45-2.05,.61-3.18Zm4.8,.12v2.82h-2.34v-2.82h2.34Zm6,0v2.82h-4v-2.82h4Zm4.34,0v2.82h-2.34v-2.82h2.34Zm6,0v2.82h-4v-2.82h4Zm4.34,0v2.82h-2.34v-2.82h2.34Zm2,2.84v-2.87c.16,0,.31-.07,.46-.09,.16,1.13,.36,2.19,.61,3.18-.33-.13-.69-.2-1.07-.22Zm-6.64-24.67c1.94,0,4.07,4.62,4.29,10.94h-3.29v-5.28c0-.55-.45-1-1-1s-1,.45-1,1v5.28h-3.28c.21-6.31,2.35-10.94,4.28-10.94Zm-13.74,0c1.94,0,4.07,4.62,4.29,10.94h-3.28v-5.28c0-.55-.45-1-1-1s-1,.45-1,1v5.28h-3.28c.21-6.31,2.35-10.94,4.28-10.94Zm20.26,12.94c.74,0,1.35,.6,1.35,1.35v4.2c0,.74-.6,1.35-1.35,1.35H18.61c-.74,0-1.35-.6-1.35-1.35v-4.2c0-.74,.6-1.35,1.35-1.35h26.78ZM6,26.39c0-8.28,2.74-14.05,5.2-14.05,1.77,0,4.04,3.33,4.88,9.47-.48,.58-.81,1.3-.81,2.11v4.2c0,.86,.35,1.63,.89,2.23-.61,5.24-2.31,8.7-3.96,9.73V20.22c0-.55-.45-1-1-1s-1,.45-1,1v7.37l-1.35-1.25c-.41-.37-1.04-.35-1.41,.06-.38,.41-.35,1.04,.06,1.41l2.71,2.5v9.8c-2.14-1.29-4.19-6.56-4.19-13.72Zm6.19,15.87c1.3-.38,2.49-1.46,3.46-3.14,.53,1.05,1.59,1.78,2.84,1.83v2.95c-2.43,.46-4.53,1.03-6.3,1.69v-3.33Zm45.81,10.59c0,.84-.81,1.53-1.8,1.53H7.8c-1,0-1.8-.69-1.8-1.53,0-2.16,6.16-8.08,26-8.08s26,5.92,26,8.08Zm-12.49-8.94v-2.95c1.25-.05,2.3-.78,2.84-1.83,.97,1.68,2.16,2.76,3.46,3.14v3.33c-1.77-.65-3.87-1.23-6.3-1.69Z"/></g><g id="ab"/><g id="ac"/><g id="ad"/><g id="ae"/><g id="af"/><g id="ag"/><g id="ah"/><g id="ai"/><g id="aj"/><g id="ak"/><g id="al"/><g id="am"/><g id="an"/><g id="ao"/><g id="ap"/><g id="aq"/><g id="ar"/><g id="as"/><g id="at"/><g id="au"/><g id="av"/><g id="aw"/><g id="ax"/></svg>