<?xml version="1.0" encoding="UTF-8" standalone="no"?>
<svg
   style="enable-background:new 0 0 64 64;"
   version="1.1"
   viewBox="0 0 64 64"
   xml:space="preserve"
   id="svg5"
   sodipodi:docname="quran.svg"
   inkscape:version="1.4.2 (f4327f4, 2025-05-13)"
   xmlns:inkscape="http://www.inkscape.org/namespaces/inkscape"
   xmlns:sodipodi="http://sodipodi.sourceforge.net/DTD/sodipodi-0.dtd"
   xmlns="http://www.w3.org/2000/svg"
   xmlns:svg="http://www.w3.org/2000/svg"><defs
     id="defs5" /><sodipodi:namedview
     id="namedview5"
     pagecolor="#ffffff"
     bordercolor="#000000"
     borderopacity="0.25"
     inkscape:showpageshadow="2"
     inkscape:pageopacity="0.0"
     inkscape:pagecheckerboard="0"
     inkscape:deskcolor="#d1d1d1"
     inkscape:zoom="12.078125"
     inkscape:cx="31.958603"
     inkscape:cy="32"
     inkscape:window-width="1920"
     inkscape:window-height="991"
     inkscape:window-x="-9"
     inkscape:window-y="-9"
     inkscape:window-maximized="1"
     inkscape:current-layer="svg5" /><g
     id="Layer_1"
     transform="matrix(0.91987648,0,0,0.91987648,2.5639528,2.5639528)" /><g
     id="Light"
     transform="matrix(0.91987648,0,0,0.91987648,2.5639528,2.5639528)" /><g
     id="Window"
     transform="matrix(0.91987648,0,0,0.91987648,2.5639528,2.5639528)" /><g
     id="Rub_el_hizb"
     transform="matrix(0.91987648,0,0,0.91987648,2.5639528,2.5639528)" /><g
     id="Muslimah"
     transform="matrix(0.91987648,0,0,0.91987648,2.5639528,2.5639528)" /><g
     id="Muslim"
     transform="matrix(0.91987648,0,0,0.91987648,2.5639528,2.5639528)" /><g
     id="Wudhu"
     transform="matrix(0.91987648,0,0,0.91987648,2.5639528,2.5639528)" /><g
     id="Praying_00000094592418709929368740000016989174723214131090_"
     transform="matrix(0.91987648,0,0,0.91987648,2.5639528,2.5639528)" /><g
     id="Praying"
     transform="matrix(0.91987648,0,0,0.91987648,2.5639528,2.5639528)" /><g
     id="Pray"
     transform="matrix(0.91987648,0,0,0.91987648,2.5639528,2.5639528)" /><g
     id="Ketupat"
     transform="matrix(0.91987648,0,0,0.91987648,2.5639528,2.5639528)" /><g
     id="Gift"
     transform="matrix(0.91987648,0,0,0.91987648,2.5639528,2.5639528)" /><g
     id="Oil_Lamp"
     transform="matrix(0.91987648,0,0,0.91987648,2.5639528,2.5639528)" /><g
     id="Tauhid"
     transform="matrix(0.91987648,0,0,0.91987648,2.5639528,2.5639528)" /><g
     id="Zakat"
     transform="matrix(0.91987648,0,0,0.91987648,2.5639528,2.5639528)" /><g
     id="Eat"
     transform="matrix(0.91987648,0,0,0.91987648,2.5639528,2.5639528)" /><g
     id="Oud"
     transform="matrix(0.91987648,0,0,0.91987648,2.5639528,2.5639528)" /><g
     id="Teapot"
     transform="matrix(0.91987648,0,0,0.91987648,2.5639528,2.5639528)" /><g
     id="Iftar"
     transform="matrix(0.91987648,0,0,0.91987648,2.5639528,2.5639528)" /><g
     id="Dawn"
     transform="matrix(0.91987648,0,0,0.91987648,2.5639528,2.5639528)" /><g
     id="Infaq"
     transform="matrix(0.91987648,0,0,0.91987648,2.5639528,2.5639528)" /><g
     id="Sajadah"
     transform="matrix(0.91987648,0,0,0.91987648,2.5639528,2.5639528)" /><g
     id="Kaaba"
     transform="matrix(0.91987648,0,0,0.91987648,2.5639528,2.5639528)" /><g
     id="Mosque_00000003803682752247596670000011302116631847618953_"
     transform="matrix(0.91987648,0,0,0.91987648,2.5639528,2.5639528)" /><g
     id="Fasting"
     transform="matrix(0.91987648,0,0,0.91987648,2.5639528,2.5639528)" /><g
     id="Quran_00000024699989614576326310000007593149211605186702_"
     transform="matrix(0.91987648,0,0,0.91987648,2.5639528,2.5639528)"><g
       id="g5"><path
         d="m 59.742,51.655 c -0.038,-0.02 -0.077,-0.039 -0.117,-0.056 L 46.893,45.997 59.176,40.593 C 61.499,39.689 63,37.494 63,35 c 0,-1.947 -0.936,-3.674 -2.377,-4.771 1.803,-2.231 2.328,-5.34 1.117,-8.167 l -0.709,-1.656 c -0.211,-0.492 -0.61,-0.879 -1.108,-1.074 -0.498,-0.196 -1.055,-0.183 -1.542,0.034 L 58.25,19.424 57.303,16.583 C 56.766,14.972 55.566,13.659 54.01,12.981 52.454,12.302 50.676,12.315 49.129,13.018 L 32,20.802 14.872,13.018 C 13.326,12.315 11.547,12.302 9.991,12.981 8.435,13.659 7.235,14.972 6.698,16.583 L 5.751,19.424 5.62,19.366 C 5.131,19.149 4.576,19.136 4.078,19.332 3.58,19.527 3.181,19.915 2.97,20.406 L 2.26,22.061 C 1.049,24.888 1.574,27.998 3.377,30.229 1.936,31.326 1,33.053 1,35 c 0,2.494 1.501,4.689 3.745,5.561 L 17.107,45.999 4.375,51.6 C 4.335,51.617 4.296,51.636 4.258,51.656 2.249,52.699 1,54.747 1,57 c 0,3.309 2.691,6 6,6 0.81,0 1.591,-0.158 2.324,-0.47 0.048,-0.021 0.096,-0.043 0.143,-0.068 L 32,52.55 54.527,62.459 c 0.049,0.026 0.099,0.049 0.149,0.071 C 55.409,62.842 56.19,63 57,63 c 3.309,0 6,-2.691 6,-6 0,-2.253 -1.249,-4.301 -3.258,-5.345 z M 57.645,36.899 41.927,43.813 36.966,41.63 56.265,33.14 c 0.016,-0.007 0.032,-0.014 0.047,-0.021 C 56.521,33.041 56.757,33 57,33 c 1.103,0 2,0.897 2,2 0,0.819 -0.513,1.569 -1.355,1.899 z M 7.921,28.838 C 6.021,27.951 5.142,25.792 5.853,23.847 l 22.3,9.91 c 1.202,0.534 2.528,0.801 3.847,0.773 0.062,10e-4 0.125,0.002 0.187,0.002 1.254,0 2.515,-0.267 3.66,-0.775 l 22.3,-9.91 c 0.711,1.945 -0.167,4.104 -2.068,4.991 L 32,39.446 Z m 2.572,-10.991 c 0.182,-0.544 0.571,-0.971 1.098,-1.201 0.527,-0.229 1.104,-0.225 1.627,0.013 l 17.955,8.16 c 0.263,0.12 0.545,0.179 0.828,0.179 0.283,0 0.564,-0.06 0.828,-0.179 l 17.955,-8.16 c 0.523,-0.238 1.101,-0.242 1.627,-0.013 0.526,0.229 0.916,0.656 1.098,1.201 l 1.07,3.209 -20.355,9.045 c -0.676,0.301 -1.419,0.448 -2.167,0.429 -0.036,-0.001 -0.073,-0.001 -0.109,0 -0.739,0.019 -1.491,-0.128 -2.168,-0.429 L 9.423,21.056 Z M 7.745,58.85 C 7.721,58.861 7.696,58.872 7.672,58.884 7.461,58.961 7.236,59 7,59 5.897,59 5,58.103 5,57 5,56.264 5.403,55.59 6.055,55.23 l 16.018,-7.048 4.961,2.182 z M 57,59 C 56.765,59 56.54,58.961 56.33,58.884 56.306,58.872 56.281,58.861 56.256,58.85 L 6.275,36.866 C 5.513,36.569 5,35.819 5,35 c 0,-1.103 0.897,-2 2,-2 0.243,0 0.479,0.041 0.688,0.119 0.016,0.007 0.031,0.015 0.047,0.021 L 57.946,55.23 C 58.597,55.59 59,56.264 59,57 c 0,1.103 -0.897,2 -2,2 z"
         id="path1" /><path
         d="m 15,7 c 0,1.104 0.896,2 2,2 1.104,0 2,-0.896 2,-2 1.104,0 2,-0.896 2,-2 0,-1.104 -0.896,-2 -2,-2 0,-1.104 -0.896,-2 -2,-2 -1.104,0 -2,0.896 -2,2 -1.104,0 -2,0.896 -2,2 0,1.104 0.896,2 2,2 z"
         id="path2" /><path
         d="m 45,8 c 0,1.104 0.896,2 2,2 1.104,0 2,-0.896 2,-2 1.104,0 2,-0.896 2,-2 0,-1.104 -0.896,-2 -2,-2 0,-1.104 -0.896,-2 -2,-2 -1.104,0 -2,0.896 -2,2 -1.104,0 -2,0.896 -2,2 0,1.104 0.896,2 2,2 z"
         id="path3" /><path
         d="m 27.02,15 c 1.104,0 2,-0.896 2,-2 0,-1.104 -0.896,-2 -2,-2 h -0.01 c -1.104,0 -1.995,0.896 -1.995,2 0,1.104 0.901,2 2.005,2 z"
         id="path4" /><path
         d="m 37.02,6 c 1.104,0 2,-0.896 2,-2 0,-1.104 -0.896,-2 -2,-2 h -0.01 c -1.104,0 -1.995,0.896 -1.995,2 0,1.104 0.901,2 2.005,2 z"
         id="path5" /></g></g><g
     id="Calendar"
     transform="matrix(0.91987648,0,0,0.91987648,2.5639528,2.5639528)" /><g
     id="Bedug"
     transform="matrix(0.91987648,0,0,0.91987648,2.5639528,2.5639528)" /><g
     id="Lantern"
     transform="matrix(0.91987648,0,0,0.91987648,2.5639528,2.5639528)" /><g
     id="Quran"
     transform="matrix(0.91987648,0,0,0.91987648,2.5639528,2.5639528)" /><g
     id="Mosque"
     transform="matrix(0.91987648,0,0,0.91987648,2.5639528,2.5639528)" /></svg>
